<svg xmlns="http://www.w3.org/2000/svg" xmlns:xlink="http://www.w3.org/1999/xlink" width="500" zoomAndPan="magnify" viewBox="0 0 375 374.999991" height="500" preserveAspectRatio="xMidYMid meet" version="1.2"><defs><clipPath id="ca56e7f57c"><path d="M 10.125 142.167969 L 90 142.167969 L 90 220 L 10.125 220 Z M 10.125 142.167969 "/></clipPath></defs><g id="4ee00be087"><rect x="0" width="375" y="0" height="374.999991" style="fill:#ffffff;fill-opacity:1;stroke:none;"/><rect x="0" width="375" y="0" height="374.999991" style="fill:#ffffff;fill-opacity:1;stroke:none;"/><g clip-rule="nonzero" clip-path="url(#ca56e7f57c)"><path style=" stroke:none;fill-rule:nonzero;fill:#00bf63;fill-opacity:1;" d="M 88.527344 183.082031 C 87.082031 176.679688 83.613281 171.445312 78.554688 167.273438 C 76.535156 165.605469 74.3125 164.25 71.914062 163.195312 C 71.738281 163.121094 71.601562 163.011719 71.410156 163.21875 C 70.6875 164.003906 69.917969 164.746094 69.105469 165.449219 C 69.15625 165.488281 69.175781 165.519531 69.195312 165.527344 C 69.332031 165.585938 69.46875 165.644531 69.605469 165.703125 C 72.058594 166.699219 74.371094 167.972656 76.390625 169.699219 C 84.675781 176.796875 87.863281 185.765625 85.398438 196.378906 C 82.21875 210.015625 68.882812 218.429688 55.566406 216.109375 C 50.632812 215.242188 46.367188 213.046875 42.710938 209.667969 C 38.351562 205.648438 35.585938 200.6875 34.101562 194.984375 C 34.0625 194.820312 34.015625 194.652344 33.976562 194.476562 C 33.820312 193.835938 33.683594 193.203125 33.597656 192.558594 C 33.585938 192.519531 33.574219 192.480469 33.574219 192.429688 C 32.84375 188.074219 32.746094 183.101562 32.746094 183.101562 C 32.71875 183.046875 32.699219 182.984375 32.777344 182.949219 C 32.84375 181.867188 33.039062 180.800781 33.476562 179.808594 C 34.382812 177.769531 35.683594 176.015625 37.300781 174.488281 C 38.1875 173.644531 39.210938 173.140625 40.398438 172.898438 C 42.332031 172.503906 44.289062 172.332031 46.230469 172.039062 C 50.722656 171.386719 55.0625 170.167969 59.242188 168.421875 C 63.785156 166.53125 67.527344 163.546875 70.617188 159.738281 C 73.066406 156.726562 74.976562 153.398438 76.292969 149.746094 C 76.4375 149.335938 76.378906 149.160156 75.929688 149.035156 C 74.109375 148.535156 72.265625 148.164062 70.394531 147.929688 C 67.363281 147.550781 64.339844 147.570312 61.316406 147.980469 C 58.015625 148.429688 54.886719 149.421875 51.855469 150.808594 C 46.578125 153.246094 42.566406 156.9375 40.183594 162.3125 C 38.988281 165.011719 38.234375 167.847656 37.328125 170.644531 C 37.300781 170.714844 37.25 170.800781 37.347656 170.871094 L 37.339844 170.847656 C 39.269531 168.375 41.355469 166.035156 43.683594 163.929688 C 47.652344 160.332031 52.046875 157.457031 57.1875 155.808594 C 58.035156 155.535156 58.890625 155.28125 59.808594 155.183594 C 48.238281 160.574219 39.125 168.714844 32.40625 179.445312 C 32.40625 179.457031 32.394531 179.359375 32.417969 179.261719 C 32.894531 176.125 32.765625 173.011719 32.152344 169.914062 C 31.214844 165.234375 29.226562 161.011719 26.519531 157.113281 C 25.425781 155.546875 24.238281 154.054688 22.988281 152.601562 C 23.566406 152.777344 24.003906 153.1875 24.433594 153.566406 C 29.746094 158.292969 32.328125 164.375 33.292969 171.277344 C 33.4375 172.371094 33.476562 173.460938 33.597656 174.5625 C 34.425781 172.671875 35.222656 170.773438 35.828125 168.800781 C 36.742188 165.78125 37.074219 162.710938 36.382812 159.582031 C 35.574219 155.894531 33.703125 152.757812 31.160156 150.046875 C 25.621094 144.140625 18.601562 142.164062 10.726562 142.550781 C 10.445312 142.5625 10.328125 142.667969 10.296875 142.988281 C 10.160156 144.871094 10.269531 146.734375 10.492188 148.59375 C 10.929688 152.074219 11.867188 155.398438 13.542969 158.488281 C 16.480469 163.890625 20.679688 168.1875 25.601562 171.816406 C 26.949219 172.800781 28.390625 173.667969 29.765625 174.621094 C 30.503906 175.136719 31.039062 175.832031 31.207031 176.765625 C 31.351562 177.566406 31.3125 178.375 31.148438 179.164062 C 30.769531 180.996094 30.457031 182.828125 30.332031 184.699219 C 30.183594 186.855469 30.203125 189 30.320312 191.152344 C 30.445312 193.632812 30.789062 196.078125 31.488281 198.464844 C 35.660156 212.757812 49.921875 221.753906 64.605469 219.324219 C 70.40625 218.371094 75.570312 215.980469 79.828125 211.90625 C 88.117188 203.953125 91.050781 194.28125 88.527344 183.082031 "/></g><path style=" stroke:none;fill-rule:nonzero;fill:#00bf63;fill-opacity:1;" d="M 72.902344 188.972656 L 61.789062 188.804688 C 61.957031 187.300781 62.125 185.800781 62.296875 184.300781 C 62.503906 182.492188 62.710938 180.6875 62.917969 178.882812 C 63.125 177.105469 63.332031 175.328125 63.550781 173.460938 C 63.429688 173.625 63.355469 173.71875 63.289062 173.820312 C 60.964844 177.390625 58.640625 180.960938 56.320312 184.53125 C 55.363281 186.003906 54.410156 187.480469 53.457031 188.957031 C 53.445312 188.972656 53.4375 188.988281 53.429688 189.003906 C 53.398438 189.042969 53.359375 189.078125 53.335938 189.117188 C 52.050781 191.085938 50.769531 193.058594 49.488281 195.03125 C 49.300781 195.316406 49.117188 195.605469 48.902344 195.9375 L 59.667969 195.9375 C 59.824219 195.945312 59.976562 195.953125 60.128906 195.957031 C 59.550781 200.988281 58.96875 206.015625 58.386719 211.046875 L 72.902344 188.972656 "/><g style="fill:#00bf63;fill-opacity:1;"><g transform="translate(97.114789, 207.541107)"><path style="stroke:none" d="M 40.609375 -62.984375 L 40.609375 -50.390625 L 18.9375 -50.390625 L 18.9375 -37.859375 L 39.703125 -37.859375 L 39.703125 -25.265625 L 18.9375 -25.265625 L 18.9375 -12.59375 L 40.609375 -12.59375 L 40.609375 0 L 4.578125 0 L 4.578125 -62.984375 Z M 40.609375 -62.984375 "/></g></g><g style="fill:#00bf63;fill-opacity:1;"><g transform="translate(141.39174, 207.541107)"><path style="stroke:none" d="M 4.578125 0 L 4.578125 -39.171875 L 18.09375 -39.171875 L 18.09375 -35.046875 L 18.25 -35.046875 C 21.757812 -38.554688 25.5 -40.3125 29.46875 -40.3125 C 31.40625 -40.3125 33.328125 -40.054688 35.234375 -39.546875 C 37.140625 -39.035156 38.96875 -38.242188 40.71875 -37.171875 C 42.476562 -36.109375 43.90625 -34.597656 45 -32.640625 C 46.09375 -30.679688 46.640625 -28.398438 46.640625 -25.796875 L 46.640625 0 L 33.140625 0 L 33.140625 -22.140625 C 33.140625 -24.171875 32.488281 -25.953125 31.1875 -27.484375 C 29.882812 -29.015625 28.191406 -29.78125 26.109375 -29.78125 C 24.078125 -29.78125 22.234375 -28.988281 20.578125 -27.40625 C 18.921875 -25.832031 18.09375 -24.078125 18.09375 -22.140625 L 18.09375 0 Z M 4.578125 0 "/></g></g><g style="fill:#00bf63;fill-opacity:1;"><g transform="translate(191.852187, 207.541107)"><path style="stroke:none" d="M 14.5 -39.171875 L 24.046875 -17.859375 L 33.59375 -39.171875 L 49.625 -39.171875 L 28.625 0 L 19.46875 0 L -1.53125 -39.171875 Z M 14.5 -39.171875 "/></g></g><g style="fill:#00bf63;fill-opacity:1;"><g transform="translate(239.946109, 207.541107)"><path style="stroke:none" d="M 5.875 -60.984375 C 7.457031 -62.566406 9.34375 -63.359375 11.53125 -63.359375 C 13.71875 -63.359375 15.597656 -62.566406 17.171875 -60.984375 C 18.753906 -59.410156 19.546875 -57.53125 19.546875 -55.34375 C 19.546875 -53.15625 18.753906 -51.269531 17.171875 -49.6875 C 15.597656 -48.113281 13.71875 -47.328125 11.53125 -47.328125 C 9.34375 -47.328125 7.457031 -48.113281 5.875 -49.6875 C 4.300781 -51.269531 3.515625 -53.15625 3.515625 -55.34375 C 3.515625 -57.53125 4.300781 -59.410156 5.875 -60.984375 Z M 4.578125 -39.171875 L 4.578125 0 L 18.09375 0 L 18.09375 -39.171875 Z M 4.578125 -39.171875 "/></g></g><g style="fill:#00bf63;fill-opacity:1;"><g transform="translate(263.000662, 207.541107)"><path style="stroke:none" d="M 4.578125 0 L 4.578125 -39.171875 L 18.09375 -39.171875 L 18.09375 -33.515625 L 18.25 -33.515625 C 18.351562 -33.710938 18.519531 -33.960938 18.75 -34.265625 C 18.976562 -34.578125 19.472656 -35.113281 20.234375 -35.875 C 20.992188 -36.644531 21.804688 -37.332031 22.671875 -37.9375 C 23.535156 -38.550781 24.65625 -39.097656 26.03125 -39.578125 C 27.40625 -40.066406 28.804688 -40.3125 30.234375 -40.3125 C 31.710938 -40.3125 33.160156 -40.109375 34.578125 -39.703125 C 36.003906 -39.296875 37.050781 -38.890625 37.71875 -38.484375 L 38.78125 -37.859375 L 33.140625 -26.421875 C 31.453125 -27.835938 29.109375 -28.546875 26.109375 -28.546875 C 24.484375 -28.546875 23.082031 -28.191406 21.90625 -27.484375 C 20.738281 -26.773438 19.910156 -25.910156 19.421875 -24.890625 C 18.941406 -23.867188 18.597656 -23 18.390625 -22.28125 C 18.191406 -21.570312 18.09375 -21.015625 18.09375 -20.609375 L 18.09375 0 Z M 4.578125 0 "/></g></g><g style="fill:#00bf63;fill-opacity:1;"><g transform="translate(301.017755, 207.541107)"><path style="stroke:none" d="M 7.25 -4.84375 C 3.582031 -8.84375 1.75 -13.742188 1.75 -19.546875 C 1.75 -25.347656 3.582031 -30.257812 7.25 -34.28125 C 10.914062 -38.300781 15.570312 -40.3125 21.21875 -40.3125 C 26.414062 -40.3125 30.691406 -38.679688 34.046875 -35.421875 L 34.046875 -39.171875 L 47.5625 -39.171875 L 47.5625 0 L 34.203125 0 L 34.203125 -4.421875 L 34.046875 -4.421875 C 30.691406 -0.710938 26.414062 1.140625 21.21875 1.140625 C 15.570312 1.140625 10.914062 -0.851562 7.25 -4.84375 Z M 18.734375 -26.1875 C 16.984375 -24.457031 16.109375 -22.242188 16.109375 -19.546875 C 16.109375 -16.847656 16.945312 -14.644531 18.625 -12.9375 C 20.300781 -11.226562 22.515625 -10.375 25.265625 -10.375 C 27.910156 -10.375 30.085938 -11.238281 31.796875 -12.96875 C 33.503906 -14.707031 34.359375 -16.898438 34.359375 -19.546875 C 34.359375 -22.242188 33.476562 -24.457031 31.71875 -26.1875 C 29.96875 -27.914062 27.816406 -28.78125 25.265625 -28.78125 C 22.671875 -28.78125 20.492188 -27.914062 18.734375 -26.1875 Z M 18.734375 -26.1875 "/></g></g><g style="fill:#00bf63;fill-opacity:1;"><g transform="translate(101.285609, 227.864393)"><path style="stroke:none" d="M 2.625 -9.046875 L 2.625 0 L 1.359375 0 L 1.359375 -13.0625 L 8.25 -3.25 L 8.25 -12.28125 L 9.515625 -12.28125 L 9.515625 0.765625 Z M 2.625 -9.046875 "/></g></g><g style="fill:#00bf63;fill-opacity:1;"><g transform="translate(112.153928, 227.864393)"><path style="stroke:none" d="M 9.125 -4.15625 L 9.125 -3.484375 L 2.125 -3.484375 C 2.25 -2.796875 2.582031 -2.238281 3.125 -1.8125 C 3.675781 -1.363281 4.289062 -1.140625 4.96875 -1.140625 C 5.425781 -1.140625 5.863281 -1.25 6.28125 -1.46875 C 6.695312 -1.664062 7.039062 -1.953125 7.3125 -2.328125 L 8.765625 -2.328125 C 8.421875 -1.566406 7.914062 -0.972656 7.25 -0.546875 C 6.5625 -0.0976562 5.867188 0.125 5.171875 0.125 C 4.453125 0.125 3.847656 0.015625 3.359375 -0.203125 C 2.847656 -0.421875 2.410156 -0.710938 2.046875 -1.078125 C 1.222656 -1.878906 0.8125 -2.859375 0.8125 -4.015625 C 0.8125 -5.148438 1.222656 -6.128906 2.046875 -6.953125 C 2.847656 -7.765625 3.820312 -8.171875 4.96875 -8.171875 C 6.070312 -8.171875 7.039062 -7.773438 7.875 -6.984375 C 8.707031 -6.191406 9.125 -5.25 9.125 -4.15625 Z M 7.78125 -4.5625 C 7.632812 -5.238281 7.300781 -5.800781 6.78125 -6.25 C 6.25 -6.6875 5.644531 -6.90625 4.96875 -6.90625 C 3.925781 -6.90625 3.113281 -6.441406 2.53125 -5.515625 C 2.351562 -5.222656 2.226562 -4.90625 2.15625 -4.5625 Z M 7.78125 -4.5625 "/></g></g><g style="fill:#00bf63;fill-opacity:1;"><g transform="translate(121.993191, 227.864393)"><path style="stroke:none" d="M 9.125 1.015625 L 6.53125 -5.40625 L 3.984375 1.015625 L 0.1875 -7.953125 L 1.59375 -7.953125 L 3.96875 -1.828125 L 6.53125 -8.359375 L 9.109375 -1.828125 L 11.484375 -7.953125 L 12.890625 -7.953125 Z M 9.125 1.015625 "/></g></g><g style="fill:#00bf63;fill-opacity:1;"><g transform="translate(135.064066, 227.864393)"><path style="stroke:none" d=""/></g></g><g style="fill:#00bf63;fill-opacity:1;"><g transform="translate(139.938562, 227.864393)"><path style="stroke:none" d="M 13.46875 -5.75 L 13.34375 -4.984375 C 13.082031 -3.492188 12.351562 -2.265625 11.15625 -1.296875 C 9.96875 -0.335938 8.628906 0.140625 7.140625 0.140625 C 6.265625 0.140625 5.441406 -0.0234375 4.671875 -0.359375 C 3.898438 -0.679688 3.234375 -1.132812 2.671875 -1.71875 C 2.097656 -2.28125 1.644531 -2.945312 1.3125 -3.71875 C 0.976562 -4.488281 0.8125 -5.316406 0.8125 -6.203125 C 0.8125 -7.066406 0.976562 -7.882812 1.3125 -8.65625 C 1.644531 -9.425781 2.097656 -10.097656 2.671875 -10.671875 C 3.234375 -11.242188 3.898438 -11.695312 4.671875 -12.03125 C 5.441406 -12.351562 6.222656 -12.515625 7.015625 -12.515625 C 8.484375 -12.515625 9.773438 -12.097656 10.890625 -11.265625 C 12.023438 -10.441406 12.796875 -9.347656 13.203125 -7.984375 L 11.859375 -7.984375 C 11.484375 -8.984375 10.863281 -9.78125 10 -10.375 C 9.132812 -10.957031 8.179688 -11.25 7.140625 -11.25 C 5.742188 -11.25 4.550781 -10.753906 3.5625 -9.765625 C 2.570312 -8.785156 2.078125 -7.597656 2.078125 -6.203125 C 2.078125 -4.816406 2.570312 -3.625 3.5625 -2.625 C 4.53125 -1.625 5.722656 -1.125 7.140625 -1.125 C 8.242188 -1.125 9.253906 -1.441406 10.171875 -2.078125 C 11.078125 -2.722656 11.707031 -3.578125 12.0625 -4.640625 L 7.078125 -4.640625 L 7.078125 -5.75 Z M 13.46875 -5.75 "/></g></g><g style="fill:#00bf63;fill-opacity:1;"><g transform="translate(154.219037, 227.864393)"><path style="stroke:none" d="M 9.125 -4.15625 L 9.125 -3.484375 L 2.125 -3.484375 C 2.25 -2.796875 2.582031 -2.238281 3.125 -1.8125 C 3.675781 -1.363281 4.289062 -1.140625 4.96875 -1.140625 C 5.425781 -1.140625 5.863281 -1.25 6.28125 -1.46875 C 6.695312 -1.664062 7.039062 -1.953125 7.3125 -2.328125 L 8.765625 -2.328125 C 8.421875 -1.566406 7.914062 -0.972656 7.25 -0.546875 C 6.5625 -0.0976562 5.867188 0.125 5.171875 0.125 C 4.453125 0.125 3.847656 0.015625 3.359375 -0.203125 C 2.847656 -0.421875 2.410156 -0.710938 2.046875 -1.078125 C 1.222656 -1.878906 0.8125 -2.859375 0.8125 -4.015625 C 0.8125 -5.148438 1.222656 -6.128906 2.046875 -6.953125 C 2.847656 -7.765625 3.820312 -8.171875 4.96875 -8.171875 C 6.070312 -8.171875 7.039062 -7.773438 7.875 -6.984375 C 8.707031 -6.191406 9.125 -5.25 9.125 -4.15625 Z M 7.78125 -4.5625 C 7.632812 -5.238281 7.300781 -5.800781 6.78125 -6.25 C 6.25 -6.6875 5.644531 -6.90625 4.96875 -6.90625 C 3.925781 -6.90625 3.113281 -6.441406 2.53125 -5.515625 C 2.351562 -5.222656 2.226562 -4.90625 2.15625 -4.5625 Z M 7.78125 -4.5625 "/></g></g><g style="fill:#00bf63;fill-opacity:1;"><g transform="translate(164.058299, 227.864393)"><path style="stroke:none" d="M 6.84375 0 L 6.84375 -4.96875 C 6.84375 -5.488281 6.726562 -5.929688 6.5 -6.296875 C 6.257812 -6.660156 5.867188 -6.84375 5.328125 -6.84375 C 4.785156 -6.84375 4.347656 -6.738281 4.015625 -6.53125 C 3.671875 -6.332031 3.398438 -6.070312 3.203125 -5.75 C 2.816406 -5.144531 2.625 -4.335938 2.625 -3.328125 L 2.625 0 L 1.359375 0 L 1.359375 -7.953125 L 2.625 -7.953125 L 2.625 -6.578125 C 2.882812 -7.023438 3.21875 -7.390625 3.625 -7.671875 C 4.0625 -7.960938 4.5625 -8.109375 5.125 -8.109375 C 5.695312 -8.109375 6.15625 -8.03125 6.5 -7.875 C 6.851562 -7.707031 7.148438 -7.484375 7.390625 -7.203125 C 7.867188 -6.640625 8.109375 -5.894531 8.109375 -4.96875 L 8.109375 0 Z M 6.84375 0 "/></g></g><g style="fill:#00bf63;fill-opacity:1;"><g transform="translate(173.247627, 227.864393)"><path style="stroke:none" d=""/></g></g><g style="fill:#00bf63;fill-opacity:1;"><g transform="translate(178.122122, 227.864393)"><path style="stroke:none" d="M 8.65625 0 L 1.359375 0 L 1.359375 -12.28125 L 8.65625 -12.28125 L 8.65625 -11.109375 L 2.625 -11.109375 L 2.625 -6.734375 L 8.46875 -6.734375 L 8.46875 -5.546875 L 2.625 -5.546875 L 2.625 -1.171875 L 8.65625 -1.171875 Z M 8.65625 0 "/></g></g><g style="fill:#00bf63;fill-opacity:1;"><g transform="translate(188.123864, 227.864393)"><path style="stroke:none" d="M 6.84375 0 L 6.84375 -4.96875 C 6.84375 -5.488281 6.726562 -5.929688 6.5 -6.296875 C 6.257812 -6.660156 5.867188 -6.84375 5.328125 -6.84375 C 4.785156 -6.84375 4.347656 -6.738281 4.015625 -6.53125 C 3.671875 -6.332031 3.398438 -6.070312 3.203125 -5.75 C 2.816406 -5.144531 2.625 -4.335938 2.625 -3.328125 L 2.625 0 L 1.359375 0 L 1.359375 -7.953125 L 2.625 -7.953125 L 2.625 -6.578125 C 2.882812 -7.023438 3.21875 -7.390625 3.625 -7.671875 C 4.0625 -7.960938 4.5625 -8.109375 5.125 -8.109375 C 5.695312 -8.109375 6.15625 -8.03125 6.5 -7.875 C 6.851562 -7.707031 7.148438 -7.484375 7.390625 -7.203125 C 7.867188 -6.640625 8.109375 -5.894531 8.109375 -4.96875 L 8.109375 0 Z M 6.84375 0 "/></g></g><g style="fill:#00bf63;fill-opacity:1;"><g transform="translate(197.313191, 227.864393)"><path style="stroke:none" d="M 9.125 -4.15625 L 9.125 -3.484375 L 2.125 -3.484375 C 2.25 -2.796875 2.582031 -2.238281 3.125 -1.8125 C 3.675781 -1.363281 4.289062 -1.140625 4.96875 -1.140625 C 5.425781 -1.140625 5.863281 -1.25 6.28125 -1.46875 C 6.695312 -1.664062 7.039062 -1.953125 7.3125 -2.328125 L 8.765625 -2.328125 C 8.421875 -1.566406 7.914062 -0.972656 7.25 -0.546875 C 6.5625 -0.0976562 5.867188 0.125 5.171875 0.125 C 4.453125 0.125 3.847656 0.015625 3.359375 -0.203125 C 2.847656 -0.421875 2.410156 -0.710938 2.046875 -1.078125 C 1.222656 -1.878906 0.8125 -2.859375 0.8125 -4.015625 C 0.8125 -5.148438 1.222656 -6.128906 2.046875 -6.953125 C 2.847656 -7.765625 3.820312 -8.171875 4.96875 -8.171875 C 6.070312 -8.171875 7.039062 -7.773438 7.875 -6.984375 C 8.707031 -6.191406 9.125 -5.25 9.125 -4.15625 Z M 7.78125 -4.5625 C 7.632812 -5.238281 7.300781 -5.800781 6.78125 -6.25 C 6.25 -6.6875 5.644531 -6.90625 4.96875 -6.90625 C 3.925781 -6.90625 3.113281 -6.441406 2.53125 -5.515625 C 2.351562 -5.222656 2.226562 -4.90625 2.15625 -4.5625 Z M 7.78125 -4.5625 "/></g></g><g style="fill:#00bf63;fill-opacity:1;"><g transform="translate(207.152454, 227.864393)"><path style="stroke:none" d="M 5.4375 -6.296875 C 5.144531 -6.566406 4.832031 -6.703125 4.5 -6.703125 C 4.175781 -6.703125 3.898438 -6.613281 3.671875 -6.4375 C 3.429688 -6.238281 3.234375 -6.007812 3.078125 -5.75 C 2.773438 -5.21875 2.625 -4.625 2.625 -3.96875 L 2.625 0 L 1.359375 0 L 1.359375 -7.953125 L 2.625 -7.953125 L 2.625 -6.296875 L 2.671875 -6.625 C 3.097656 -7.613281 3.753906 -8.109375 4.640625 -8.109375 C 4.921875 -8.109375 5.1875 -8.054688 5.4375 -7.953125 Z M 5.4375 -6.296875 "/></g></g><g style="fill:#00bf63;fill-opacity:1;"><g transform="translate(212.767156, 227.864393)"><path style="stroke:none" d="M 7.78125 -3.96875 C 7.78125 -4.738281 7.515625 -5.414062 6.984375 -6 C 6.441406 -6.570312 5.773438 -6.859375 4.984375 -6.859375 C 4.210938 -6.859375 3.550781 -6.570312 3 -6 C 2.457031 -5.425781 2.1875 -4.75 2.1875 -3.96875 C 2.1875 -3.1875 2.457031 -2.515625 3 -1.953125 C 3.550781 -1.367188 4.210938 -1.078125 4.984375 -1.078125 C 5.773438 -1.078125 6.441406 -1.367188 6.984375 -1.953125 C 7.515625 -2.523438 7.78125 -3.195312 7.78125 -3.96875 Z M 2.15625 1.078125 C 2.269531 1.578125 2.523438 2.019531 2.921875 2.40625 C 3.472656 2.96875 4.144531 3.25 4.9375 3.25 C 5.71875 3.25 6.390625 2.96875 6.953125 2.40625 C 7.503906 1.851562 7.78125 1.179688 7.78125 0.390625 L 7.78125 -1.34375 C 7.71875 -1.25 7.65625 -1.160156 7.59375 -1.078125 C 6.832031 -0.234375 5.898438 0.1875 4.796875 0.1875 C 3.691406 0.1875 2.765625 -0.234375 2.015625 -1.078125 C 1.285156 -1.898438 0.921875 -2.863281 0.921875 -3.96875 C 0.921875 -5.082031 1.285156 -6.046875 2.015625 -6.859375 C 2.765625 -7.703125 3.691406 -8.125 4.796875 -8.125 C 5.859375 -8.125 6.789062 -7.703125 7.59375 -6.859375 C 7.65625 -6.773438 7.71875 -6.691406 7.78125 -6.609375 L 7.78125 -7.953125 L 9.046875 -7.953125 L 9.046875 0.390625 C 9.046875 1.523438 8.644531 2.5 7.84375 3.3125 C 7.03125 4.113281 6.0625 4.515625 4.9375 4.515625 C 3.800781 4.515625 2.828125 4.113281 2.015625 3.3125 C 1.378906 2.664062 0.992188 1.921875 0.859375 1.078125 Z M 2.15625 1.078125 "/></g></g><g style="fill:#00bf63;fill-opacity:1;"><g transform="translate(223.166083, 227.864393)"><path style="stroke:none" d="M 2.359375 4.515625 L 0.828125 4.515625 L 3.5 -1.296875 L 0.1875 -7.953125 L 1.625 -7.953125 L 4.171875 -2.625 L 6.453125 -7.953125 L 7.859375 -7.953125 Z M 2.359375 4.515625 "/></g></g></g></svg>